<svg xmlns="http://www.w3.org/2000/svg" width="102.475" height="29.768" xmlns:v="https://vecta.io/nano"><path d="M19 21.492c0 4.726-3.842 7.276-8.262 7.276-2.04 0-4.454-.374-6.494-1.088-.442-.17-.578-.374-.578-.646 0-.136 0-.272.068-.442l.714-2.21c.102-.34.272-.544.612-.544.136 0 .306.034.51.102 1.598.578 3.366 1.02 5.066 1.02 1.836 0 3.91-.884 3.91-3.026 0-1.564-1.156-2.414-2.482-3.06l-4.42-2.21c-2.414-1.19-4.012-3.196-4.012-5.848 0-4.148 4.08-6.426 7.854-6.426 2.244 0 4.114.34 6.086 1.19.442.204.68.408.68.68 0 .136-.034.272-.102.442l-.816 2.074c-.136.374-.34.51-.578.51-.17 0-.34-.068-.544-.136-1.394-.578-3.128-1.054-4.488-1.054-1.598 0-3.434.68-3.434 2.584 0 1.394 1.292 2.21 2.414 2.754l3.774 1.836C17.164 16.562 19 18.364 19 21.492zm20.927-1.394c0 4.896-2.992 8.67-8.296 8.67-5.542 0-8.092-3.74-8.092-8.704 0-4.896 2.992-8.636 8.296-8.636 5.542 0 8.092 3.672 8.092 8.67zm-4.25 0c0-2.788-.884-5.44-3.876-5.44-3.026 0-4.012 2.618-4.012 5.338 0 2.788.85 5.542 3.876 5.542 2.992 0 4.012-2.652 4.012-5.44zm21.981 7.106c0 .272-.17.408-.476.544-1.632.748-3.128 1.02-4.93 1.02-5.236 0-8.126-3.264-8.126-8.5 0-5.27 3.162-8.84 8.432-8.84 1.53 0 3.128.306 4.556.952.272.136.408.204.408.476 0 .102-.034.306-.068.408l-.442 1.802c-.068.306-.204.476-.408.476-.102 0-.238-.068-.374-.136-.986-.408-2.074-.748-3.264-.748-2.924 0-4.59 2.074-4.59 5.406 0 3.264 1.496 5.508 4.42 5.508 1.462 0 2.38-.272 3.57-.748.102-.034.238-.102.34-.102.204 0 .34.17.408.408l.442 1.496c.068.238.102.442.102.578zm9.401-19.652c0 1.326-1.156 2.142-2.278 2.142s-2.312-.748-2.312-2.108 1.122-2.176 2.312-2.176c1.156 0 2.278.782 2.278 2.142zm-.204 19.958c0 .612-.272.85-.85.85h-2.38c-.612 0-.884-.238-.884-.85V12.652c0-.578.34-.782.884-.782h2.38c.544 0 .85.17.85.782V27.51zm22.525.204c0 .408-.272.646-.68.646h-1.632c-1.768 0-2.55-.85-2.788-2.006h-.068c-.85 1.258-3.06 2.414-4.93 2.414-4.794 0-6.97-3.944-6.97-8.364 0-5.882 3.536-8.976 7.344-8.976 1.802 0 3.502.816 4.352 1.972l.068-.918c.034-.374.306-.612.714-.612h2.38c.442 0 .714.238.714.748v11.798c0 .476.068.816.204.986.102.102.238.136.408.136h.272c.408 0 .612.136.612.578v1.598zm-5.61-4.624v-6.562c-.68-.986-2.074-1.734-3.366-1.734-2.074 0-3.842 1.768-3.842 5.338 0 2.856 1.088 5.27 3.604 5.27 1.666 0 3.094-1.258 3.604-2.312zm14.705 4.42c0 .578-.272.85-.748.85h-2.584c-.476 0-.782-.238-.782-.816V5.24c0-.578.238-.748.68-.816l2.448-.34c.068 0 .17-.034.238-.034.408 0 .748.204.748.748V27.51z" fill="#ff5a5f" style="mix-blend-mode:source-over"/></svg>